<svg width="605" height="605" xmlns="http://www.w3.org/2000/svg" xmlns:xlink="http://www.w3.org/1999/xlink" overflow="hidden"><defs><clipPath id="clip0"><rect x="0" y="0" width="605" height="605"/></clipPath></defs><g clip-path="url(#clip0)"><rect x="0" y="0" width="605" height="605" fill="#111B21"/><path d="M132.016 268.915 131.841 269.129C125.832 278.121 121.698 288.499 120.007 299.69L119.162 310.985 120.558 324.988 121.173 327.684 124.648 339.003 125.327 340.744 131.841 352.878C145.195 372.861 167.808 385.999 193.457 385.999 203.716 385.999 213.49 383.897 222.38 380.095L234.713 373.328 153.805 290.868 153.805 291.122ZM415.296 238.211C374.258 238.211 340.99 271.844 340.99 313.333 340.99 354.822 374.258 388.456 415.296 388.456 456.334 388.456 489.601 354.822 489.601 313.333 489.601 297.775 484.923 283.321 476.911 271.332L468.248 260.716 464.369 257.321 456.841 251.041C444.982 242.941 430.685 238.211 415.296 238.211ZM193.457 235.754C183.197 235.754 173.423 237.856 164.534 241.657L155.696 246.507 257.373 348.592 261.923 340.117C265.683 331.13 267.762 321.249 267.762 310.876 267.762 269.387 234.494 235.754 193.457 235.754ZM528 46.0001 528 200.767 528 200.767 528 349.452 528 351.869 527.894 351.869 527.107 369.844C518.238 470.607 444.28 552.486 347.946 572.378L328.933 575.306 328.933 123.597 347.946 126.525C373.635 131.83 397.733 141.542 419.43 154.846L419.489 154.885ZM77.6243 46 186.291 154.602 199.841 146.796C224.15 134.232 251.017 125.991 279.444 123.077L282.855 122.903 282.855 576 279.444 575.826C165.734 564.173 77 467.269 77 349.452L77.6243 334.252 77.6243 200.767 132.031 200.767 132.031 200.767 77.6243 200.767Z" fill="#A784F0" fill-rule="evenodd"/><path d="M147.892 296.764 147.734 296.959C142.285 305.138 138.536 314.579 137.002 324.758L136.235 335.032 137.502 347.769 138.059 350.221 141.211 360.517 141.826 362.101 147.734 373.138C159.844 391.314 180.351 403.265 203.611 403.265 212.915 403.265 221.779 401.353 229.841 397.895L241.025 391.739 167.653 316.733 167.653 316.964ZM404.792 268.836C367.576 268.836 337.406 299.429 337.406 337.168 337.406 374.906 367.576 405.5 404.792 405.5 442.008 405.5 472.177 374.906 472.177 337.168 472.177 323.016 467.935 309.869 460.669 298.963L452.812 289.307 449.295 286.219 442.468 280.506C431.713 273.138 418.748 268.836 404.792 268.836ZM203.611 266.601C194.307 266.601 185.444 268.513 177.382 271.971L169.367 276.383 261.575 369.239 265.702 361.531C269.112 353.356 270.997 344.368 270.997 334.933 270.997 297.194 240.827 266.601 203.611 266.601ZM507 94.0001 507 234.777 507 234.777 507 370.021 507 372.22 506.904 372.22 506.19 388.57C498.147 480.225 431.077 554.703 343.714 572.797L328.869 575.09 328.869 164.953 343.714 167.246C367.011 172.072 388.865 180.906 408.541 193.007L408.594 193.043ZM98.5661 94 197.113 192.785 209.401 185.685C231.446 174.256 255.811 166.76 281.591 164.11L282.903 164.043 282.903 576 281.591 575.933C178.471 565.333 98 477.189 98 370.021L98.5661 356.195 98.5661 234.777 147.906 234.777 147.906 234.777 98.5661 234.777Z" fill="#D1F09C" fill-rule="evenodd"/></g></svg>